<svg width="800" height="779" viewBox="0 0 800 779" fill="none" xmlns="http://www.w3.org/2000/svg">
<path d="M657.601 5.40004C654.668 15.2667 653.601 15.5334 624.134 16.6001C591.334 17.6667 583.868 19.5334 573.601 29.6667C564.534 38.4667 559.734 45.8001 556.001 55.8001C553.468 63.1334 553.201 65.1334 554.401 73.1334C555.068 78.2 557.868 88.6001 560.668 96.3334C564.401 106.6 565.734 112.333 565.601 118.067C565.601 122.333 565.334 126.067 565.068 126.467C564.668 126.733 561.734 125.8 558.534 124.333C555.334 122.867 550.134 121.667 547.068 121.667C544.001 121.667 536.001 119.533 529.068 116.867C498.934 105.4 448.801 91.8 412.001 85.1334C354.534 74.7334 299.868 74.6001 253.468 84.4667C136.534 109.533 52.8009 190.067 17.8675 311.4C4.53421 357.8 -1.33246 413.267 1.33421 467C4.53421 531.933 18.1342 579 45.3342 620.2C55.4675 635.267 76.6675 657.667 92.0009 669.133C106.534 680.067 132.534 693.267 151.868 699.533C176.668 707.667 193.734 710.067 225.334 710.2C254.534 710.2 270.134 708.467 295.334 702.467L308.534 699.267L327.334 708.333C348.934 719 367.734 725.533 379.601 726.6C384.268 727 388.001 727.8 388.001 728.2C387.868 728.6 386.001 730.2 383.734 731.667C373.868 737.933 370.934 748.733 376.268 758.867C380.801 767.8 385.201 770.333 395.334 770.333C401.868 770.333 404.668 769.667 407.601 767.533C420.934 757.667 420.668 740.733 406.934 731.533L402.668 728.6L410.268 728.067C414.534 727.933 459.334 727.933 509.734 728.333L601.601 729L597.334 732.067C592.801 735.533 588.134 744.333 588.001 749.533C588.001 754.467 593.068 763.933 597.468 767C607.334 774.2 624.001 770.733 629.201 760.467C634.534 750.067 631.734 736.867 623.334 732.333C618.268 729.667 619.334 728.333 626.668 728.333C641.468 728.333 697.734 702.2 707.201 690.867C711.334 685.933 712.934 680.733 711.068 677.8C710.001 676.2 707.601 675.667 701.201 675.8C691.601 676.067 681.201 679.267 652.001 691L632.534 698.733L597.601 699.8C569.601 700.467 562.668 701.133 562.668 702.467C562.668 704.067 569.068 704.333 597.734 704.333H632.668L657.201 694.333C682.268 684.067 696.934 679 701.468 679C704.801 679 706.134 682.333 704.134 686.067C697.868 698.2 693.868 700.6 656.534 715.4L635.334 723.667L513.334 724.067C430.268 724.333 387.734 723.933 380.001 723C373.734 722.2 363.334 719.667 356.668 717.533C344.534 713.533 314.534 699.667 309.068 695.667C306.134 693.533 306.268 693.4 314.134 694.2C320.801 694.867 323.601 694.467 330.934 691.8L339.734 688.467L361.734 695.667C387.601 704.2 392.668 705 411.334 703.667C422.001 703 425.334 702.333 425.334 700.867C425.334 699.4 422.001 699 407.868 699C390.401 699 390.134 699 369.068 692.2L347.868 685.533L365.601 676.6C397.868 660.333 419.468 644.733 448.401 616.6C459.201 606.067 468.401 597.667 468.801 597.933C469.068 598.333 467.601 603 465.468 608.467C463.201 613.933 459.601 625.533 457.201 634.333C451.468 656.067 448.401 663.933 443.734 668.867C437.201 675.667 433.068 685.267 432.268 695.267C432.001 700.067 432.001 705.667 432.534 707.533L433.334 711H493.201C549.334 711 553.068 710.867 555.068 708.6C556.401 707.267 557.334 704.733 557.334 702.867C557.201 697.933 552.534 688.733 549.201 687C547.601 686.067 534.268 682.733 519.734 679.533C492.268 673.4 486.401 671.4 484.001 667.133C481.734 662.867 482.401 661 489.868 647.4C511.201 608.333 524.934 581.133 532.801 562.2C537.601 550.6 544.268 535.133 547.468 528.067C554.534 512.867 560.001 492.467 560.001 481.667C560.001 469.667 556.268 461.4 538.801 435.8L522.668 411.933V390.067C522.668 369.933 522.801 368.2 525.068 368.6C527.068 369 527.468 371.4 528.001 389.667L528.668 410.333L539.734 425.533C565.868 461.4 570.934 484.733 559.334 515.667C556.534 523 550.534 537 545.868 546.733C539.868 559.533 538.001 564.333 539.734 563.667C540.934 563.133 550.668 562.467 561.334 562.067C590.668 561 611.734 564.2 676.668 579.533C721.601 590.2 743.201 590.867 760.934 582.2C778.534 573.667 790.801 552.333 796.001 521C798.668 505 800.001 472.2 798.668 450.467C794.401 375.8 773.334 316.333 730.934 259C701.868 219.8 646.401 173.133 600.801 149.533C596.001 147 592.001 144.467 592.001 143.933C592.001 143.267 593.601 140.733 595.601 138.2L599.068 133.533L602.534 136.867C608.801 142.867 623.734 148.867 632.668 148.867C642.534 148.867 647.334 146.733 652.934 139.267C656.801 134.2 657.334 132.467 657.334 125.4C657.334 118.333 657.868 116.733 661.334 112.733C665.868 107.533 666.001 107 663.201 99.1334C661.601 94.6 661.334 89.8 662.001 77.1334C662.668 65.1334 662.401 59.4001 661.068 55.0001L659.201 49.0001L667.601 41.0001C675.868 33.1334 676.001 32.8667 676.001 25.8001C676.001 17.6667 672.668 9.26673 667.068 3.80006C662.134 -1.13327 659.334 -0.599961 657.601 5.40004ZM670.534 18.7334C672.534 25.5334 672.401 29.1334 670.001 33.6667C667.734 37.9334 664.668 39.9334 651.868 44.8667C635.201 51.1334 625.468 56.3334 620.534 61.2667C615.868 66.2001 609.334 77.6667 609.334 81.5334C609.334 82.6001 607.468 81.6667 604.668 79.1334C598.668 73.9334 593.201 73.6667 589.468 78.4667C585.868 83.1334 585.868 84.2001 590.668 90.7334C592.934 93.8001 594.668 96.8667 594.668 97.4C594.668 98.0667 592.934 100.2 590.934 102.2C585.868 107 578.534 109 572.801 107C568.668 105.667 568.001 104.733 563.868 91.9334C557.734 73.5334 557.734 62.8667 563.734 50.8667C568.801 40.3334 578.534 30.3334 587.334 26.2C596.934 21.8 615.468 18.8667 633.468 19.1334C651.334 19.4 658.001 17.2668 661.201 10.4668L663.068 6.46675L666.134 10.0667C667.868 12.0667 669.868 15.9334 670.534 18.7334ZM655.868 53.5334C658.934 59.2667 659.734 67.4001 658.401 82.2001C657.334 95.0001 657.468 98.2 659.201 102.333C661.868 108.6 662.001 107.933 657.334 110.333C654.268 111.933 653.334 113.267 653.334 116.333C653.334 121.267 649.468 121.8 645.334 117.667C643.734 116.067 642.001 115.267 641.334 115.667C639.068 117.133 641.601 120.2 646.801 122.6C653.201 125.4 654.534 129.4 651.601 135.8C648.668 141.933 642.934 144.467 632.268 144.467C624.934 144.467 622.001 143.8 614.134 139.8C600.401 132.867 600.534 133 602.801 130.2C606.401 125.8 599.734 130.333 594.001 136.2C591.201 139.267 587.868 141.667 586.668 141.667C585.601 141.667 581.468 139.8 577.734 137.667L570.668 133.667L570.534 125C570.401 120.2 570.268 115.533 570.134 114.733C570.001 113.667 574.001 112.2 580.534 110.867C589.334 109 591.868 107.933 594.934 104.467C599.868 98.8667 599.868 93.9334 594.668 89.0001C588.001 82.6001 589.734 78.0667 598.134 79.6667C603.468 80.6 606.134 85.1334 607.601 95.6667C608.534 103 610.668 103.533 610.668 96.4667C610.668 89.0001 615.334 75.0001 619.868 68.7334C624.401 62.4667 630.668 58.3334 641.868 54.2001C651.868 50.4668 654.268 50.3334 655.868 53.5334ZM562.801 132.067C575.068 139.933 580.668 149.133 585.468 169C588.801 183.4 588.401 186.6 577.868 223.4C566.668 262.2 564.134 285.8 567.201 320.333C569.334 343.933 570.534 346.333 588.268 363.933C602.668 378.067 635.468 404.6 642.801 407.933C648.268 410.467 649.201 412.333 646.134 414.867C645.068 415.8 642.801 419.8 641.201 423.8C639.468 427.8 637.734 431 637.068 431C628.534 431 532.268 369 526.001 359.4C521.468 352.6 518.534 318.867 517.468 262.733C516.934 233.533 516.134 209.4 515.734 209C515.334 208.6 514.268 215.133 513.334 223.533C510.401 251.4 513.068 323 518.134 349C519.868 357.667 520.001 361.667 518.801 369.667C518.001 375.133 516.801 388.733 516.001 399.667C514.268 427.133 512.934 433.533 508.134 437.8C501.601 443.8 488.268 446.2 461.334 446.2C404.934 446.067 365.601 435.133 344.401 413.4C335.601 404.467 332.134 396.733 332.001 386.6C332.001 373.4 336.534 367.267 356.801 353.533C370.801 344.067 378.001 337.533 375.734 336.2C374.401 335.267 374.534 335 376.134 335C378.668 335 383.201 328.6 389.334 316.333C392.668 309.667 393.201 307.667 391.734 306.867C390.401 305.933 390.534 305.667 392.401 305.667C394.134 305.667 396.134 302.733 399.201 295.933C405.468 282.333 406.001 280.333 403.334 280.333C402.134 280.333 401.601 279.667 402.001 279C402.401 278.2 404.001 277.667 405.334 277.667C406.934 277.667 408.268 276.2 409.201 273.267C410.001 270.733 413.334 264.6 416.534 259.4C419.734 254.2 422.668 248.467 423.201 246.467C423.601 244.6 424.801 243 425.734 243C426.668 243 433.068 237.267 440.001 230.2C449.334 220.733 451.734 217.667 449.334 218.333L446.001 219.133L449.201 216.467C450.934 214.867 453.068 213.667 454.134 213.667C455.868 213.667 462.001 207.667 468.001 199.933L470.534 196.733L466.934 197.267L463.334 197.8L467.334 194.333C469.601 192.467 472.534 190.6 474.001 190.2C475.468 189.667 479.468 185.533 483.068 180.733C487.868 174.2 488.668 172.333 486.668 173C484.668 173.667 484.134 173.4 484.801 171.667C485.334 170.467 487.334 169.133 489.468 168.733C494.534 167.8 504.001 156.6 501.201 154.867C499.601 153.933 499.601 153.667 501.334 153.533C502.401 153.4 503.868 153.4 504.534 153.533C505.868 153.8 520.801 139.933 520.001 139.133C519.601 138.733 521.068 138.067 523.068 137.533C525.201 137 527.601 135.8 528.668 135C532.401 131.933 543.601 128.467 550.134 128.333C555.201 128.333 558.134 129.267 562.801 132.067ZM577.201 261.133C575.334 275.133 574.401 290.2 574.268 305.667C574.001 337.133 575.068 340.333 588.934 353.8C594.668 359.4 611.068 373.133 625.334 384.467L651.334 405L657.601 404.6C662.934 404.2 664.401 404.6 667.334 407.533C669.201 409.4 670.668 412.067 670.668 413.533C670.668 414.867 672.934 417.933 675.734 420.333L680.668 424.467L675.334 421.667C671.868 419.8 669.068 417 667.468 413.533C664.134 406.733 661.734 405.4 655.734 407.267C651.601 408.467 650.268 408.2 644.934 405.133C637.201 400.467 598.934 368.6 586.268 355.8C573.068 342.733 572.668 341.133 572.668 297C572.801 266.733 573.068 262.467 575.868 251.267C577.601 244.467 579.201 239.133 579.468 239.4C579.734 239.667 578.801 249.533 577.201 261.133ZM665.068 415.8C665.601 419.4 652.268 447 650.001 447C648.934 447 646.534 445.667 644.534 443.933C641.468 441.267 641.068 440.2 641.868 435.533C643.334 427.4 649.468 416.067 654.534 412.733C658.534 409.933 659.468 409.8 661.868 411.533C663.468 412.467 664.801 414.467 665.068 415.8ZM348.668 423.8C358.134 429.8 368.534 434.333 388.934 441.533L405.334 447.267L400.134 453.533C392.401 462.733 360.668 493.4 350.001 501.8C334.801 513.933 303.334 534.733 297.468 536.467C292.134 538.067 291.734 537.933 287.868 534.2C285.601 532.067 280.401 525.667 276.401 520.067C272.401 514.333 267.201 508.2 264.934 506.467C260.268 502.867 260.001 503.133 272.134 499.8L279.734 497.667L310.134 458.333C326.801 436.733 340.668 419 340.801 419C341.068 419 344.668 421.133 348.668 423.8ZM536.534 442.867C549.601 462.333 550.934 464.867 552.134 473C553.868 483.667 552.401 493.8 546.401 512.867C541.868 527.133 539.868 529.8 532.134 532.067C527.068 533.667 472.001 534.467 472.001 533C472.001 532.6 473.201 530.067 474.534 527.267C477.734 521.133 483.468 501.667 484.534 493.667C485.068 489.933 484.534 484.6 483.334 479.667C481.601 473.133 480.134 470.733 474.934 466.067C471.468 463 464.668 459 459.734 457C454.668 455 450.668 452.867 450.668 452.067C450.668 451.4 451.868 451.267 453.468 451.667C458.268 453.267 482.934 452.733 491.334 451C502.934 448.6 512.668 443.667 515.868 438.6C517.201 436.2 518.801 431.533 519.334 427.933C519.868 424.467 520.668 421.667 521.201 421.667C521.734 421.667 528.534 431.267 536.534 442.867ZM691.334 435.4C697.068 440.067 704.268 454.467 705.068 462.867C705.868 472.2 703.201 473 699.734 464.467C698.134 460.733 696.001 457.667 695.068 457.667C692.934 457.667 692.934 457.533 695.334 464.333C697.868 471.533 697.868 475.8 695.468 476.733C694.001 477.267 693.068 475.667 691.868 470.2C689.734 460.6 687.734 461 688.268 471C688.534 475.267 688.134 479 687.468 479C686.668 479.133 683.868 473.933 681.201 467.533C676.001 455.8 670.401 448.333 663.734 444.867C659.068 442.467 659.068 441 664.268 430.467L668.534 421.8L677.734 426.733C682.801 429.4 688.934 433.4 691.334 435.4ZM669.334 453.133C669.334 453.4 668.134 453.133 666.668 452.333C665.201 451.533 664.001 450.6 664.001 450.2C664.001 449.933 665.201 450.2 666.668 451C668.134 451.8 669.334 452.733 669.334 453.133ZM680.668 473C681.201 475.8 681.068 476.333 680.268 475C678.268 471.8 676.801 466.067 678.401 467.667C679.201 468.333 680.134 470.733 680.668 473ZM474.668 509.667C472.268 517 468.001 526.867 465.334 531.4C462.401 536.067 460.668 540.2 461.334 540.867C462.001 541.533 465.201 541.267 468.934 540.2C474.801 538.6 488.668 537.933 490.001 539.133C490.534 539.8 479.734 573 478.534 574.2C478.134 574.6 478.801 570.867 480.134 565.933C481.334 560.867 482.668 554.2 482.801 550.867L483.334 545L471.734 544.6C455.868 544.067 455.601 543.667 463.068 527.4C474.534 502.333 478.001 495.133 478.401 495.667C478.668 495.933 476.934 502.2 474.668 509.667ZM253.334 506.733C253.334 509.267 190.268 521.667 167.468 523.533C152.134 524.733 158.401 523 181.468 519.667C203.468 516.333 229.734 511.267 242.001 507.8C249.868 505.533 253.334 505.267 253.334 506.733ZM267.334 518.467C270.001 522.6 275.201 529.267 278.934 533.267C282.668 537.133 285.468 540.6 285.201 540.867C284.001 542.067 239.468 552.333 226.001 554.6C213.868 556.6 204.668 557 173.601 556.733C133.068 556.6 119.601 555.133 117.334 550.867C114.401 545.533 116.934 537.533 122.134 535.133C126.268 533.267 148.934 530.067 165.468 529.133C182.668 528.067 249.868 516.067 258.934 512.467C260.668 511.667 262.134 511.133 262.268 511.133C262.401 511 264.801 514.333 267.334 518.467ZM108.668 516.333C111.868 518.6 115.734 522.2 117.334 524.333L120.134 528.333L115.468 532.867C110.934 537 110.668 537.933 110.668 545.267C110.668 550.867 111.334 553.8 112.668 555C115.468 557.267 115.201 559.933 112.134 561C108.134 562.2 103.201 568.733 89.3342 590.867C75.8675 612.467 71.7342 617.667 68.4009 617.667C65.4675 617.667 66.9342 609.8 73.4675 591C76.4009 582.6 83.0675 562.733 88.1342 547C96.8009 520.733 100.134 512.333 102.134 512.333C102.534 512.333 105.468 514.2 108.668 516.333ZM322.668 533C303.068 552.733 300.268 554.2 277.201 556.867C224.001 563.4 173.734 566.067 144.401 564.067C130.134 563.133 122.801 563.133 120.001 564.2C117.334 565.133 116.134 565.133 116.801 564.2C118.668 561.133 124.401 560.6 143.068 561.933C184.534 564.733 239.201 559.667 275.334 549.533C298.801 543.133 306.534 539.533 322.801 527.533C331.201 521.4 338.268 516.467 338.668 516.467C339.068 516.333 331.868 523.8 322.668 533ZM532.668 546.6C523.868 571.667 505.068 610.333 484.268 645.933C469.734 671.133 468.534 672.333 460.668 672.333C456.668 672.333 454.401 671.667 453.868 670.467C453.468 669.4 454.934 663 457.068 656.067C459.334 649.267 462.401 638.333 463.868 631.8C465.468 625.267 469.601 613.267 472.934 605.133C476.401 597 483.201 578.867 488.001 565L496.668 539.667L509.334 539.933C516.268 540.2 524.401 539.8 527.334 539.133C530.268 538.467 533.334 537.933 534.268 537.8C535.334 537.667 534.801 540.733 532.668 546.6ZM480.001 671C480.001 673.933 487.601 676.733 513.201 683C541.201 689.933 547.068 692.067 548.534 695.667C549.201 697.533 543.334 697.667 493.601 697.4L438.001 697L438.268 693.133C438.401 691 440.134 686.067 442.001 682.067C445.734 674.6 448.001 673.533 452.534 677C458.001 681.133 472.134 678.2 475.734 672.467C477.468 669.533 480.001 668.733 480.001 671ZM543.334 705.8C539.734 706.467 515.068 707.267 488.534 707.8C441.334 708.733 436.801 708.467 439.068 704.6C439.468 704.067 464.534 703.933 494.934 704.2C530.268 704.467 547.601 705.133 543.334 705.8ZM406.934 738.867C413.068 745.8 411.334 759 403.734 762.6C395.734 766.467 388.801 765.267 383.468 758.867C379.734 754.467 379.201 749.8 381.468 743.133C385.068 733 399.601 730.6 406.934 738.867ZM621.468 738.467C626.268 743.133 627.468 749.133 624.934 755.4C622.268 761.667 617.601 764.6 609.868 764.733C604.268 764.733 603.068 764.2 599.068 759.933C594.001 754.333 593.201 748.2 596.801 741.533C601.068 733.133 614.268 731.533 621.468 738.467Z" fill="#0A66C2"/>
<path d="M640.534 73.4001C641.867 75.5334 654.667 78.2001 656.267 76.6001C657.201 75.6667 655.601 75.0001 651.201 74.3334C647.601 73.8001 643.601 73.1334 642.134 72.7334C640.667 72.3334 640.001 72.6001 640.534 73.4001Z" fill="#0A66C2"/>
<path d="M647.201 87.4C646.801 88.6 646.801 90.7334 647.334 91.9334C648.134 94.0667 648.401 94.0667 649.734 91.2667C650.668 89.1334 650.668 87.8 649.601 86.7334C648.534 85.6667 647.868 85.8 647.201 87.4Z" fill="#0A66C2"/>
<path d="M391.734 744.467C388.801 746.067 388.668 750.067 391.201 752.333C395.868 756.067 403.601 750.867 400.534 745.933C398.801 743.267 394.934 742.467 391.734 744.467Z" fill="#0A66C2"/>
<path d="M606.401 746.467C604.401 750.733 606.401 754.333 610.667 754.333C612.401 754.333 614.401 753.267 615.067 752.067C617.067 749 614.267 743 610.667 743C609.067 743 607.334 744.333 606.401 746.467Z" fill="#0A66C2"/>
<path d="M347.335 773.667C346.935 774.333 346.935 775.533 347.335 776.333C348.402 778.067 646.535 778.2 649.202 776.467C650.135 775.8 650.535 774.6 650.135 773.8C648.935 771.8 348.535 771.667 347.335 773.667Z" fill="#0A66C2"/>
<path d="M198.001 775.133C197.468 775.933 197.601 777.133 198.268 777.8C198.934 778.467 225.868 778.867 264.134 778.733C320.401 778.333 328.668 778.067 328.668 776.333C328.668 774.6 320.401 774.333 263.734 773.933C217.734 773.8 198.534 774.067 198.001 775.133Z" fill="#0A66C2"/>
<path d="M666.001 775.133C665.468 775.933 665.601 777.133 666.268 777.8C666.934 778.467 693.868 778.867 732.134 778.733C788.401 778.333 796.668 778.067 796.668 776.333C796.668 774.6 788.401 774.333 731.734 773.933C685.734 773.8 666.534 774.067 666.001 775.133Z" fill="#0A66C2"/>
</svg>
