<svg width="534" height="430" viewBox="0 0 534 430" fill="none" xmlns="http://www.w3.org/2000/svg">
<path d="M99.2006 25.6C96.2673 31.3334 95.3339 44.9334 97.4673 50C99.0673 53.7334 99.2006 53.3334 100.134 42C100.667 35.3334 101.734 28.2667 102.534 26.2667C104.267 21.6 104.401 21.3334 102.667 21.3334C102.001 21.3334 100.401 23.2 99.2006 25.6Z" fill="#2C3E50"/>
<path d="M135.333 27.4667C124.399 28.9334 121.733 29.7334 119.733 32.2667C116.133 36.9334 114.666 43.6 114.666 56C114.666 70.2667 116.533 77.3334 119.999 77.3334C121.733 77.3334 122.666 78.2667 122.666 80C122.666 81.4667 123.466 84.8 124.533 87.3334L126.533 91.8667L136.266 89.0667C148.666 85.7334 160.533 80.4 163.599 77.0667C165.866 74.5334 165.866 74.4 163.466 72.6667C161.333 71.0667 161.066 69.2 161.599 56.4L161.999 42L157.733 40.8C153.733 39.6 153.466 39.0667 153.066 32.8C152.799 28 152.133 26 150.666 25.8667C149.599 25.7334 142.666 26.4 135.333 27.4667ZM150.933 34C150.266 39.2 149.333 39.4667 138.666 37.4667C133.333 36.4 132.399 36.5334 129.733 39.4667C125.866 43.7334 122.666 54.6667 122.666 64.1334C122.666 69.2 121.999 72.2667 120.666 73.3334C119.066 74.6667 118.533 74.5334 117.866 72.8C116.266 68.6667 118.133 44.8 120.533 39.0667C122.799 33.8667 123.333 33.4667 129.066 32.6667C132.533 32.2667 138.399 31.4667 141.999 30.8C145.733 30.1334 149.333 29.6 149.999 29.4667C150.933 29.4667 151.199 31.2 150.933 34ZM149.333 44C157.999 44 157.999 44.1334 157.866 60.2667C157.599 72.8 157.199 75.3334 155.333 76.4C151.199 78.6667 127.466 87.8667 126.933 87.4667C123.999 84.5334 126.266 51.2 129.866 44.2667L131.866 40.4L138.933 42.1334C142.799 43.2 147.466 44 149.333 44Z" fill="#2C3E50"/>
<path d="M387.867 34.5334C380 37.6 367.467 44.6667 365.333 47.3334C363.867 49.0667 364.133 49.8667 366.4 52.4C372 58.4 375.2 68 375.2 79.0667L375.333 89.6L380 88.6667C382.533 88.1334 386.4 87.4667 388.4 87.0667L392.267 86.2667L390.133 90.5334C388 94.6667 388 94.6667 391.333 96C393.333 96.8 398.933 97.3334 404 97.3334C409.067 97.3334 413.467 97.8667 414 98.6667C414.4 99.3334 415.733 99.4667 417.067 99.0667C427.333 95.4667 434.533 75.0667 432.667 54.4C431.6 42.2667 430.8 41.7334 417.333 43.0667C409.867 43.7334 409.333 43.4667 407.2 40.2667C401.6 31.4667 398.267 30.4 387.867 34.5334ZM403.2 40C407.733 45.4667 409.733 53.0667 409.867 65.2L410 75.0667L397.333 79.3334C390.4 81.7334 383.333 84.1334 381.733 84.5334C378.8 85.4667 378.667 85.2 378.667 76.8C378.667 67.6 375.333 56.4 371.2 51.8667C370 50.4 369.2 48.9334 369.6 48.6667C370.933 47.3334 396.667 36 398.267 36C399.067 36 401.333 37.8667 403.2 40ZM429.067 57.7334C429.467 69.0667 427.2 79.3334 422.533 87.3334C419.867 91.8667 419.467 92 411.333 92C398.933 92 394.4 90.8 394.933 87.7334C395.2 86 397.867 84.1334 403.2 82C407.6 80.2667 411.6 78 412.267 77.0667C413.6 75.0667 412.933 52.5334 411.333 48.9334C410.4 46.8 411.067 46.5334 419.467 46.9334L428.667 47.3334L429.067 57.7334Z" fill="#2C3E50"/>
<path d="M447.334 50.6667C447.334 58.6667 447.734 65.3334 448.267 65.3334C448.801 65.3334 449.867 62.8 450.801 59.7334C452.401 53.4667 451.467 41.4667 448.934 38.1334C447.601 36.4 447.334 38.9334 447.334 50.6667Z" fill="#2C3E50"/>
<path d="M278.667 68.2667C274.134 70 273.334 71.6 273.334 80.2667C273.334 87.0667 273.067 88 270.801 88C265.334 88 261.601 99.0667 265.867 102.533C266.801 103.333 268.534 103.733 269.601 103.333C271.201 102.667 276.001 107.467 276.001 109.6C276.001 109.867 272.401 110.133 268.134 110.267C256.801 110.667 245.067 115.2 231.334 124.4C216.267 134.4 209.601 140.8 201.067 152.933C197.334 158.267 193.867 162.667 193.334 162.667C192.134 162.667 185.867 174.4 184.934 178.667C184.267 181.6 156.267 209.333 154.134 209.333C153.734 209.333 153.334 207.2 153.334 204.667C153.334 195.733 150.534 186.667 147.201 184.4C144.534 182.667 144.001 181.333 144.001 175.2C144.001 165.733 141.601 163.2 130.934 162C114.267 160.133 88.6673 164.667 83.4673 170.533C81.8673 172.4 81.334 174.933 81.6006 179.333C81.8673 184.533 82.6673 186.267 85.734 188.533C89.2006 191.067 91.0673 191.333 106.934 191.067C124.267 190.8 124.267 190.8 123.201 193.733C122.667 195.333 122.134 200.8 122.134 206C122.267 222.933 135.467 257.067 142.801 259.333C145.867 260.4 153.867 256.533 163.334 249.467C170.134 244.267 176.001 240.8 176.001 241.867C176.001 242.133 172.401 250.133 167.867 259.467C163.467 268.933 155.334 287.6 149.867 301.067C144.401 314.4 138.134 329.067 135.867 333.467C133.201 338.933 132.001 342.667 132.534 344.8C133.334 347.733 132.401 348.4 122.401 353.2C106.001 360.8 88.6673 371.2 88.2673 373.733C87.334 378.133 92.6673 378.933 104.934 376.133C111.467 374.667 118.801 373.2 121.334 372.8L126.001 372.133L121.334 375.733C108.801 385.467 106.267 390.933 113.734 391.733C116.267 392 120.534 390.533 126.401 387.067C135.467 381.733 142.667 378.267 142.667 379.2C142.667 379.467 140.534 384.267 137.867 389.733C133.201 399.6 132.134 407.333 135.601 407.333C137.334 407.333 156.534 389.2 161.734 382.533L165.201 378.133L170.801 384.4C176.267 390.667 184.534 396 188.801 396C192.534 396 190.267 386.8 184.001 376.133C179.867 368.933 178.801 366.133 179.867 364.8C180.667 363.867 181.067 361.333 180.534 359.2C179.601 354.267 193.334 312.667 203.734 289.333C207.734 280.133 214.401 263.6 218.534 252.533L226.001 232.533L234.134 238.533C259.734 257.733 262.667 260.133 263.201 262.933C264.401 268.8 265.334 275.467 266.667 288.533C268.401 304.933 274.267 338.533 276.001 341.6C276.801 342.933 277.334 345.333 277.334 346.933C277.334 351.333 283.467 359.333 293.734 368.133C303.334 376.533 308.401 379.467 319.467 383.333L326.134 385.733L331.867 381.867C337.467 378.267 337.601 377.867 336.934 372.4C336.267 366.4 330.001 356.533 320.267 346.267C315.601 341.467 315.467 341.067 316.934 335.867C318.401 330 317.067 322.267 307.334 281.733C299.601 249.733 296.667 244.133 278.801 225.467C272.934 219.333 267.734 213.2 267.334 212C266.801 210.267 269.201 208.533 278.934 204.133C285.734 200.933 293.334 196.933 295.734 195.067C298.267 193.2 300.667 192.267 301.201 192.8C301.734 193.467 303.867 196.267 305.867 199.067C307.867 201.867 312.001 205.733 315.067 207.733C318.134 209.733 324.267 214 328.667 217.2C338.801 224.667 348.801 229.333 354.401 229.333C356.801 229.333 361.867 227.733 365.734 225.867C375.601 220.8 404.667 201.333 413.334 194C433.867 176.4 436.001 174.267 436.001 170.667C436.001 167.867 437.201 166.667 442.001 164.267C449.867 160.4 453.601 160.533 474.667 165.333C493.734 169.6 498.001 170.133 499.334 167.867C501.067 165.333 498.534 159.6 493.867 155.333L489.201 151.067L497.601 150.133C511.734 148.667 512.401 143.067 499.201 135.733C495.601 133.733 490.667 131.733 488.401 131.2C486.001 130.8 484.001 130 484.001 129.467C484.001 129.067 488.934 127.467 494.801 126C506.267 123.333 512.401 119.867 510.001 117.467C506.667 114.133 491.201 111.467 474.934 111.733C465.867 111.733 457.201 112.267 455.601 112.8C453.201 113.6 453.467 112.667 457.734 107.867C467.601 96.4 469.067 89.3334 461.734 89.3334C453.601 89.3334 429.601 107.867 418.534 122.667C415.067 127.333 411.601 130.533 410.134 130.667C405.067 130.667 357.334 181.467 357.334 186.8C357.334 192.667 350.401 180.267 342.667 160.667C335.201 141.467 320.401 120 314.667 120C313.334 120 310.534 119.333 308.401 118.533L304.667 117.067L308.934 115.333C311.201 114.4 313.734 112.4 314.534 110.8C316.401 107.333 316.401 96.5334 314.534 85.7334C313.201 78.2667 313.334 76.9334 315.334 74.6667C319.201 70.4 317.067 68.4 307.734 67.4667C297.067 66.2667 282.934 66.6667 278.667 68.2667ZM280.934 75.4667C279.734 76.6667 277.201 74.6667 278.134 73.0667C278.667 72.2667 279.467 72.2667 280.401 73.2C281.201 74 281.467 74.9334 280.934 75.4667ZM310.667 79.8667C310.667 80.5334 309.467 81.3334 308.001 81.7334C304.401 82.6667 304.667 85.0667 308.534 86.1334C311.334 86.8 311.867 87.7334 312.267 93.7334C313.067 107.333 312.534 108.667 305.734 110.8C300.134 112.533 299.467 113.2 297.867 118.667C295.467 126.533 295.601 127.333 298.401 125.333C299.601 124.4 297.334 126.8 293.334 130.8L286.134 138L285.201 133.867C284.801 131.467 283.067 127.733 281.467 125.467C278.801 121.733 278.667 121.2 280.667 117.467C283.467 112 283.201 111.067 278.667 106.4C275.734 103.467 274.801 101.6 275.467 99.7334C276.267 97.2 275.867 97.0667 271.467 97.8667C266.267 98.8 266.001 98.5334 268.001 94.5334C269.734 91.4667 272.401 91.2 274.667 94C277.467 97.3334 278.667 96.2667 278.667 90.6667C278.667 86.6667 279.601 84.4 282.001 82C284.934 78.9334 286.267 78.6667 298.001 78.6667C304.934 78.6667 310.667 79.2 310.667 79.8667ZM454.934 103.2C442.667 115.867 442.134 122.8 453.467 120C461.467 118 498.001 116.667 499.067 118.267C499.467 118.933 492.934 120.933 484.401 122.8C469.067 126.133 464.134 128.667 467.334 131.867C468.134 132.533 474.401 134.4 481.334 135.867C494.801 138.8 504.001 142.267 504.001 144.4C504.001 145.067 501.201 145.333 497.067 144.8C474.801 142.4 471.734 142.267 470.534 144.133C468.267 147.867 469.467 149.6 476.667 152.667C486.001 156.8 494.667 162.267 494.667 164C494.667 164.933 493.867 164.933 492.001 164C488.534 162.133 456.267 153.333 452.934 153.333C451.467 153.333 446.534 155.067 442.001 157.2C437.467 159.333 431.601 161.467 429.067 162C424.934 162.8 424.001 162.4 421.734 159.067C417.201 152.8 412.934 137.867 414.534 134.8C420.801 123.2 453.334 94.6667 460.401 94.6667C462.534 94.6667 461.334 96.5334 454.934 103.2ZM273.867 118.267C274.401 120.4 275.067 122.933 275.467 124.133C275.867 125.733 274.934 126.533 272.401 127.067C270.267 127.467 267.601 128.267 266.134 128.8C264.001 129.6 263.867 129.333 264.667 126.533C268.267 114.667 272.267 111.2 273.867 118.267ZM255.867 120.933C254.801 122.133 254.134 124.133 254.401 125.467C254.667 126.667 254.267 128.133 253.601 128.533C252.934 128.933 252.667 132.4 253.067 136.133C253.467 141.067 253.201 143.333 251.867 144.133C250.267 145.067 250.267 145.333 251.867 145.333C253.067 145.333 252.001 147.067 249.334 149.333C246.934 151.467 244.534 152.933 243.867 152.667C243.334 152.267 242.534 152.533 242.001 153.333C241.467 154.133 240.534 154.267 239.734 153.867C238.801 153.333 238.667 153.6 239.201 154.533C239.734 155.333 240.667 155.733 241.334 155.333C241.867 154.933 242.801 155.733 243.201 156.933C244.001 158.933 244.267 158.933 245.334 157.333C246.134 156.133 246.667 156 246.667 156.933C246.667 157.733 246.001 158.933 245.334 159.333C244.534 159.867 244.267 160.667 244.667 161.2C244.934 161.867 242.801 168.533 239.867 176.133C236.934 183.733 232.934 194.533 231.067 200C229.201 205.467 227.201 210.667 226.534 211.333C226.001 212.133 225.067 214.8 224.667 217.2C223.601 223.333 204.401 275.867 202.801 277.333C202.401 277.733 201.867 278.933 201.601 280C201.334 281.067 199.067 286.533 196.667 292C191.467 303.733 176.134 349.2 175.467 355.2C175.201 357.467 174.934 359.733 174.801 360.267C174.534 361.867 163.601 361.467 158.534 359.867C152.401 357.733 150.267 355.733 156.134 357.467C163.067 359.467 172.401 360.267 171.334 358.667C170.934 358 171.067 357.333 171.867 357.333C172.534 357.333 172.934 356 172.667 354.4C172.267 352.8 172.667 351.067 173.334 350.667C174.001 350.267 174.934 347.6 175.334 344.667C175.601 341.867 176.667 339.067 177.467 338.533C178.401 338 178.667 336.667 178.267 335.467C177.867 334.4 178.001 333.067 178.801 332.533C179.467 332.133 179.734 330.533 179.334 329.2C178.801 327.733 179.334 325.067 180.667 323.2C182.534 320.267 182.534 319.867 180.667 319.067C179.067 318.533 178.934 318 180.001 317.333C181.067 316.667 180.534 316.133 178.801 315.6C177.201 315.2 176.001 315.467 176.001 316.267C176.001 317.067 174.801 317.333 173.334 316.933C171.867 316.533 170.401 316.667 170.001 317.333C169.734 317.867 167.334 318.133 164.801 318C161.601 317.733 160.001 318.267 159.467 319.6C158.801 321.2 158.267 321.333 156.801 320.133C155.467 319.067 154.667 318.933 154.001 320C152.934 321.733 148.001 321.733 148.001 319.867C148.001 319.067 149.067 316.667 150.267 314.667C152.267 311.2 152.667 311.067 154.134 313.067C155.467 314.933 156.001 314.933 157.867 313.467C159.067 312.4 160.401 312 160.934 312.4C161.334 312.933 162.534 312.667 163.467 311.867C164.401 311.067 168.267 310.4 171.867 310.267C177.067 310.133 178.134 309.733 177.067 308.4C176.267 307.467 176.134 306.667 176.534 306.667C178.401 306.667 167.201 296.533 163.734 295.067C159.601 293.2 158.934 290.533 162.001 288C163.601 286.667 164.134 286.8 164.801 288.533C165.201 289.733 166.134 290.4 166.667 290C167.201 289.6 168.001 290.267 168.534 291.333C168.934 292.4 170.534 293.333 172.001 293.333C173.601 293.333 174.534 293.867 174.001 294.533C173.601 295.333 174.534 296.533 176.001 297.333C177.467 298.133 178.667 299.6 178.667 300.667C178.667 301.733 179.334 302.667 180.001 302.667C180.801 302.667 181.334 303.867 181.334 305.2C181.334 306.8 182.267 307.6 183.734 307.467C186.401 307.333 188.534 304.533 187.334 302.667C186.934 301.867 187.201 301.333 187.867 301.333C188.667 301.333 189.334 299.867 189.334 298.267C189.334 296.533 189.734 294.667 190.267 294.133C190.801 293.6 191.334 291.2 191.334 288.933C191.467 286.533 192.001 283.733 192.667 282.667C193.201 281.733 194.134 278.667 194.667 275.867L195.601 270.933L191.334 271.6C188.934 272 186.667 271.6 186.134 270.8C185.601 270 183.067 269.733 179.867 270.133C173.334 271.067 170.001 268.933 172.134 265.2C172.801 263.733 174.001 262.933 174.801 263.467C175.467 263.867 179.734 264.4 184.267 264.8L192.534 265.333L188.934 261.867C186.934 260.133 185.334 257.867 185.334 256.933C185.334 256 184.801 256.133 184.001 257.333C182.934 259.067 182.667 258.933 182.667 257.067C182.667 255.733 182.001 254.8 181.067 255.067C178.801 255.467 178.267 251.733 180.401 248.933C182.001 246.667 182.534 246.8 189.067 251.6C192.801 254.4 196.001 257.467 196.001 258.533C196.001 261.067 202.667 266.533 204.801 265.733C206.934 264.933 208.534 260.533 207.334 258.667C206.934 258 207.067 257.333 207.867 257.333C208.667 257.333 208.934 256.533 208.534 255.467C208.134 254.4 208.401 253.2 209.201 252.8C210.001 252.267 210.267 251.067 209.734 250C209.334 248.8 209.734 247.067 210.667 246C211.601 244.8 212.001 243.6 211.467 243.067C211.067 242.667 211.601 240.8 212.667 239.067C213.867 237.333 214.401 235.333 214.001 234.667C213.601 233.867 213.867 233.333 214.667 233.333C215.467 233.333 215.734 232.667 215.334 232C214.934 231.2 215.467 230.267 216.534 229.867C220.934 228.133 216.534 225.067 209.201 224.533C200.001 224 198.534 223.733 199.334 222.933C199.601 222.667 198.534 221.333 196.934 220C194.401 217.867 194.267 217.2 195.734 214.133C197.067 211.067 197.734 210.8 200.134 212.133C201.734 212.933 203.334 214.667 203.601 216C204.001 217.467 205.067 218.133 206.134 217.733C207.201 217.333 208.801 217.6 209.734 218.4C210.534 219.067 212.801 219.467 214.667 219.333C216.534 219.067 218.534 218.8 219.201 218.8C219.734 218.667 220.001 217.333 219.734 215.6C219.067 212.4 221.601 208.8 223.467 210.4C224.001 210.933 224.001 210.667 223.601 209.867C223.201 209.067 223.601 206.933 224.667 204.933C226.267 201.733 226.267 201.333 224.534 201.333C221.334 201.333 210.667 193.467 210.667 191.067C210.667 189.733 209.867 189.333 208.534 189.867C206.934 190.533 206.667 190 207.334 187.6C207.867 186 208.534 183.6 208.801 182.267C209.734 179.067 211.334 179.467 213.867 183.333C215.067 185.2 215.734 186.667 215.334 186.667C214.801 186.667 215.334 187.6 216.534 188.667C217.601 189.733 219.067 190.667 219.867 190.667C220.667 190.667 221.334 191.333 221.334 192.133C221.334 192.8 221.867 193.2 222.534 192.8C223.067 192.4 224.801 192.933 226.134 194C227.467 195.067 229.201 196 229.867 196C230.667 196 230.134 195.2 228.667 194.267C226.401 192.533 226.401 192.267 229.467 190.267C231.201 188.933 232.001 188 231.334 188C230.534 188 230.801 187.467 231.867 186.8C234.267 185.2 234.934 181.333 232.934 181.333C231.867 181.333 232.001 180.8 233.201 180.133C234.134 179.467 234.534 178.267 234.134 177.467C233.601 176.667 233.867 176 234.667 176C235.467 176 235.867 175.467 235.467 174.8C235.067 174.133 236.134 172.667 238.001 171.467C240.267 170 241.201 168.267 241.067 166C240.934 164.133 240.267 162.667 239.601 162.667C239.067 162.667 238.801 162.267 239.067 161.6C239.601 160.533 235.067 155.733 234.001 156.267C233.734 156.533 232.267 155.733 231.067 154.667C229.734 153.6 227.201 152.533 225.467 152.267C223.734 152.133 221.601 151.067 220.801 150C219.601 148.267 218.534 148.667 214.267 152.667C210.267 156.267 209.467 157.867 210.534 159.2C211.601 160.4 211.067 162.667 208.667 167.733C205.201 174.933 203.201 176.4 202.401 172.267C202.001 170.533 201.467 170.933 199.867 174C197.467 178.667 197.467 182.133 199.601 181.733C200.801 181.467 200.801 182.4 199.734 185.333C199.067 187.6 197.734 188.933 196.934 188.4C196.134 188 196.001 188.267 196.534 189.067C197.067 189.867 196.534 192.267 195.467 194.267C193.734 197.733 193.467 197.867 192.667 195.333C192.134 193.867 191.201 191.333 190.534 189.6C189.867 187.867 189.334 185.333 189.334 183.733C189.334 180.8 194.401 171.867 200.134 164.933C202.001 162.533 204.801 158.533 206.401 155.867C210.801 148.533 214.134 146.267 220.934 145.867C224.267 145.6 227.734 145.867 228.534 146.4C231.334 148.133 233.601 147.867 232.134 146.133C231.201 145.067 231.067 141.867 231.467 138.133C232.134 133.333 233.067 131.467 235.201 130.667C238.534 129.467 239.601 131.467 239.467 138.933C239.334 141.733 239.734 144 240.401 144C240.934 144 241.334 143.333 241.334 142.667C241.334 141.867 242.267 141.333 243.467 141.333C244.534 141.333 245.067 140.667 244.667 140C244.267 139.2 244.267 138 244.801 137.2C245.334 136.267 245.734 133.333 245.867 130.533C246.001 126.533 245.601 125.467 244.134 126C243.067 126.4 243.734 125.333 245.467 123.467C247.334 121.733 250.534 120 252.667 119.6C254.934 119.333 256.934 118.933 257.201 118.8C257.467 118.8 256.801 119.6 255.867 120.933ZM308.001 128.933V135.067L305.067 132.533C303.334 131.2 301.867 130 301.601 129.867C301.467 129.733 302.001 128.133 302.801 126.133C305.467 120.4 308.001 121.733 308.001 128.933ZM261.334 127.333C261.334 128.4 260.801 129.333 260.001 129.333C259.334 129.333 259.067 128.4 259.467 127.333C260.001 126.267 260.534 125.333 260.801 125.333C261.067 125.333 261.334 126.267 261.334 127.333ZM258.801 133.733C257.467 134.933 257.334 134.8 258.134 132.933C258.534 131.6 259.334 130.933 259.734 131.333C260.134 131.733 259.734 132.8 258.801 133.733ZM277.334 135.333C278.267 136.4 279.867 137.333 280.801 137.333C283.601 137.333 283.067 139.067 278.667 144.667C276.534 147.467 274.667 151.067 274.667 152.8C274.667 154.667 273.601 156.133 272.001 156.667C270.534 157.067 269.334 158.133 269.334 158.8C269.334 159.6 268.801 159.733 268.001 159.333C267.334 158.933 266.667 159.2 266.667 160C266.667 160.933 265.867 161.067 264.401 160.267C263.067 159.6 261.334 159.2 260.534 159.6C259.734 159.867 258.134 158.933 256.934 157.6C255.067 155.6 254.934 154.4 256.134 150.933C256.934 148.533 258.134 146.667 258.801 146.667C259.467 146.667 260.001 145.733 260.001 144.667C260.001 143.6 261.201 142 262.667 141.067C264.134 140.133 265.334 138.8 265.334 138.133C265.334 136.267 269.734 133.467 272.801 133.333C274.401 133.333 276.401 134.267 277.334 135.333ZM326.001 138.267C326.934 140.933 325.867 142 319.734 144C316.934 144.8 314.667 146.133 314.667 146.8C314.667 147.6 314.134 147.867 313.601 147.467C312.934 147.067 311.601 147.867 310.401 149.067C309.334 150.267 306.267 153.067 303.467 155.2C300.801 157.333 298.801 159.733 299.201 160.667C299.467 161.467 298.534 162.933 297.201 163.867C295.734 164.667 294.934 165.867 295.334 166.533C295.601 167.2 295.067 168.4 294.001 169.333C293.067 170.133 292.534 171.733 292.934 172.8C293.334 173.867 293.067 174.667 292.401 174.667C291.734 174.667 291.334 177.2 291.467 180.267C291.734 187.733 291.734 188 293.467 188C294.134 188 294.534 187.467 294.001 186.8C293.601 186.133 293.867 185.2 294.534 184.8C295.201 184.267 296.134 184.533 296.534 185.067C297.867 187.333 291.734 192.133 280.934 197.467C269.734 202.933 265.067 204.133 267.867 200.8C268.667 199.867 269.067 198 268.534 196.8C268.134 195.6 268.134 193.6 268.667 192.267C269.201 191.067 269.867 187.867 270.134 185.333C270.401 182.8 271.201 180.533 272.001 180.267C272.667 180 273.067 179.2 272.534 178.533C272.134 177.867 272.534 177.333 273.334 177.333C274.134 177.333 274.401 176.667 274.001 176C273.601 175.2 273.867 174.667 274.801 174.667C275.734 174.667 276.001 174.267 275.601 173.733C275.067 173.333 275.334 172.267 276.001 171.333C276.934 170.267 276.667 169.733 275.334 169.733C274.267 169.733 273.334 170.267 273.334 170.8C273.334 171.467 272.534 171.6 271.734 171.333C269.601 170.533 261.334 178.133 261.334 180.8C261.334 181.733 260.801 182.667 260.001 182.667C259.334 182.667 258.667 183.867 258.667 185.333C258.667 186.8 258.134 188 257.601 188C255.867 188 256.534 200.8 258.401 203.067C259.867 204.8 259.734 205.333 257.734 206.4C254.667 208 246.801 209.733 248.801 208.4C249.867 207.733 250.267 204.133 250.001 198.667C249.734 193.867 250.001 189.333 250.401 188.667C250.934 187.867 251.334 186.533 251.467 185.733C252.401 180.133 266.801 164.4 269.467 166.133C270.134 166.533 270.667 166.133 270.667 165.333C270.667 164.533 271.334 164.267 272.001 164.667C272.801 165.067 273.334 164.8 273.334 164.133C273.334 161.733 279.867 162.533 281.067 164.933C281.734 166.267 282.134 168.933 281.867 170.933C281.601 173.733 282.134 174.667 283.734 174.667C285.734 174.667 285.734 174.4 284.001 173.333C282.267 172.267 282.401 172 284.534 172C286.001 172 286.801 171.6 286.401 171.2C285.867 170.8 286.134 168.533 286.801 166.267C287.601 163.867 288.267 157.2 288.401 151.333C288.667 141.467 288.934 140.667 291.601 140.267C294.267 139.867 294.401 140.267 294.134 148.533L293.734 157.333L301.334 150.4C305.467 146.533 309.867 141.867 311.067 140C313.067 136.933 313.334 136.933 313.334 139.333C313.334 140.933 313.734 141.467 314.401 140.533C316.267 137.867 321.601 134.933 323.334 135.6C324.401 135.867 325.467 137.2 326.001 138.267ZM404.801 144.133C401.067 147.333 400.267 148.667 401.467 150.133C402.267 151.067 402.401 152.667 401.867 153.6C401.067 154.8 400.534 154.4 400.001 152.267C399.334 149.2 399.201 149.2 394.267 154.133C389.334 159.2 388.134 162 390.801 162.933C392.534 163.467 396.134 173.333 395.201 174.933C394.801 175.6 395.201 176.933 396.001 178C396.934 179.067 397.201 180 396.667 180C396.134 180 396.401 180.8 397.201 181.867C398.001 182.8 398.267 184.667 397.867 186C397.334 187.2 397.467 188.667 398.134 189.2C398.801 189.6 400.134 191.333 400.934 192.933C402.401 195.6 402.134 196.133 398.534 198.8C394.001 202 393.467 201.867 392.534 196.533C391.467 191.2 390.934 188.8 390.534 188C390.401 187.6 390.134 186.667 390.134 186C390.001 185.2 389.067 183.2 388.134 181.467C387.201 179.867 386.667 177.2 387.067 175.867C387.467 174.533 387.201 173.333 386.534 173.333C385.867 173.333 385.334 172.133 385.334 170.8C385.334 168.533 384.934 168.4 382.001 169.733C380.134 170.667 378.667 172.4 378.667 173.6C378.667 174.933 378.134 176 377.467 176C376.934 176 375.067 178.933 373.601 182.667C372.001 186.267 370.267 189.333 369.734 189.333C369.067 189.333 368.534 190.933 368.401 192.933C368.267 198.133 367.601 200.533 366.001 201.6C365.201 202.267 365.334 202.667 366.401 202.667C367.467 202.667 367.734 203.333 367.201 204.267C366.667 205.2 366.267 208.533 366.534 211.733C366.934 217.467 364.534 221.2 360.534 221.333C358.667 221.333 358.267 211.867 360.001 207.333C360.934 204.667 360.934 203.2 359.867 201.867C358.934 200.667 358.801 200 359.734 200C360.401 200 361.467 199.067 361.867 197.867C362.267 196.8 362.134 196.267 361.467 196.667C360.801 197.067 359.867 196.133 359.334 194.667C358.667 192.533 360.401 189.6 366.134 182.267C376.667 169.2 408.534 136.8 409.067 138.533C409.334 139.333 407.334 141.867 404.801 144.133ZM416.134 157.333C418.801 163.333 422.001 167.867 425.067 170.133L429.734 173.733L426.134 175.6C424.134 176.667 422.134 177.067 421.467 176.8C420.801 176.4 419.601 176.8 418.801 177.867C416.534 180.533 404.667 177.867 399.734 173.6C397.067 171.467 396.401 165.333 398.801 165.333C399.467 165.333 399.734 164.667 399.334 164C398.934 163.2 399.201 162.667 400.001 162.667C400.801 162.667 401.067 162 400.667 161.333C400.267 160.533 400.534 160 401.201 160C402.001 160 402.534 159.6 402.401 158.933C402.134 158.4 403.334 156.667 405.067 154.933C406.667 153.333 407.734 151.333 407.334 150.667C406.667 149.733 408.401 148.4 410.934 148.133C411.334 148 413.734 152.133 416.134 157.333ZM334.801 155.733C332.667 156.4 332.934 160 335.067 160C336.001 160 337.867 162.267 339.067 165.067C341.601 170.933 341.867 172.533 340.134 171.467C339.467 170.933 338.667 171.333 338.401 172.133C338.134 172.933 334.534 173.6 330.401 173.733C324.667 173.867 322.134 173.2 320.134 171.333C316.134 167.733 316.667 164.933 322.667 158.533C325.601 155.333 328.001 153.2 328.001 153.733C328.001 154.267 328.801 154 329.867 153.067C330.934 152.133 331.467 150.667 331.067 150C330.801 149.2 331.734 150.133 333.334 152C335.067 153.867 335.601 155.467 334.801 155.733ZM219.067 170.933C217.867 172.933 216.001 172 216.001 169.333C216.001 167.067 216.267 166.8 217.867 168.267C218.934 169.2 219.467 170.4 219.067 170.933ZM136.534 169.2C140.134 170 140.401 170.4 140.801 177.333L141.201 184.667L134.401 187.733L127.601 190.667L125.067 188C122.801 185.6 120.934 185.333 104.801 185.333C85.734 185.333 83.334 184.533 84.2673 178.533C84.8006 175.2 94.134 170.933 104.667 169.333C112.801 168.133 131.201 168 136.534 169.2ZM247.334 182.267C246.667 183.6 246.134 185.467 245.867 186.4C245.201 189.733 241.334 196.933 239.467 198.667C236.934 200.667 237.201 199.6 242.267 184.8C245.334 175.867 246.001 174.667 247.067 177.067C247.734 178.667 247.867 180.933 247.334 182.267ZM344.534 185.467C343.734 186.933 341.334 185.733 341.334 184C341.334 183.333 342.267 183.067 343.334 183.467C344.401 184 344.934 184.8 344.534 185.467ZM148.534 190.267C148.934 191.6 149.867 196.8 150.667 201.867C152.134 211.6 152.134 211.6 145.601 218.933C143.867 220.8 142.667 223.467 142.934 224.8C143.201 226.667 145.201 225.6 152.667 219.067C157.867 214.667 167.067 205.867 173.067 199.467C179.201 193.067 184.401 188 184.401 188.267C184.534 188.533 186.401 192 188.534 196.267L192.401 203.733L186.001 219.333C179.734 234.533 179.467 234.933 173.067 238.133C169.467 240 162.667 244.133 157.867 247.333C147.067 254.8 142.667 255.067 138.934 248.933C137.467 246.667 135.867 242.8 135.334 240.667C134.801 238.4 133.601 234.267 132.534 231.333C131.601 228.4 129.867 220.533 128.801 213.867C127.601 207.2 126.401 200.8 125.867 199.467C125.201 197.733 127.201 196.267 134.801 192.667C146.134 187.333 147.601 187.2 148.534 190.267ZM324.934 194.133C328.401 194.533 332.934 194.8 334.934 194.8C336.934 194.8 338.934 195.333 339.334 196.133C339.867 196.8 340.801 197.067 341.467 196.533C342.934 195.733 350.667 198.8 350.667 200.267C350.667 200.933 350.134 201.333 349.334 201.333C348.667 201.333 348.001 202.133 348.001 203.067C348.001 204.667 341.601 208.667 340.267 208C340.001 207.867 338.667 209.067 337.334 210.667L334.934 213.467L327.867 207.733C324.001 204.533 318.667 199.067 316.134 195.467C311.734 189.333 311.601 189.067 314.934 191.2C316.934 192.533 321.334 193.867 324.934 194.133ZM239.334 210.667C233.467 211.467 232.801 211.333 233.734 209.733C234.134 209.067 236.801 208.8 239.601 209.2L244.667 209.867L239.334 210.667ZM275.467 228.667C282.801 237.467 290.267 247.067 292.134 250C295.467 255.2 298.801 267.733 305.467 300.667C306.801 307.2 308.801 315.6 309.867 319.333C314.001 332.4 311.601 338.4 301.201 341.333C295.601 342.933 283.067 343.067 282.134 341.467C281.067 339.867 276.801 314.133 274.001 292.667C270.267 264.4 268.801 260.8 255.067 247.467C248.667 241.333 239.867 234.133 235.601 231.733C228.401 227.6 228.001 227.067 228.801 223.333C230.001 217.6 229.734 217.733 238.667 217.467C243.201 217.333 250.001 216.133 253.734 214.8C257.601 213.467 261.067 212.4 261.467 212.533C261.867 212.667 268.134 219.867 275.467 228.667ZM347.467 218.667C350.267 220 352.134 221.2 351.601 221.333C350.001 221.333 341.334 217.6 341.334 216.8C341.334 215.6 341.734 215.733 347.467 218.667ZM162.801 321.733C162.667 322.267 162.667 324 162.667 325.467C162.667 327.733 162.267 328 160.801 326.8C158.801 325.067 159.467 319.6 161.601 320.267C162.267 320.533 162.801 321.2 162.801 321.733ZM320.801 354.133C324.934 359.733 329.067 366.4 330.134 368.8C331.867 372.933 331.734 373.333 328.534 375.867C323.867 379.6 322.134 379.467 311.334 374.267C304.801 371.067 299.201 366.933 292.401 360.133C283.067 350.8 279.867 345.2 285.067 347.333C286.267 347.867 290.667 348.667 294.667 348.933C301.734 349.6 303.201 349.2 312.934 344.133C313.067 344 316.667 348.533 320.801 354.133ZM150.667 355.6C150.667 356.8 145.734 353.2 142.001 349.2C138.134 345.067 138.267 345.067 144.401 349.867C147.867 352.667 150.667 355.2 150.667 355.6ZM149.601 360.667C158.001 364.533 168.934 366.8 173.067 365.733C175.201 365.2 176.001 365.6 176.001 367.333C176.001 368.667 178.401 374.133 181.467 379.467C188.667 392.533 185.601 392.667 170.801 379.733C167.601 376.933 164.534 374.667 163.867 374.667C163.334 374.667 157.601 380.133 151.201 386.667C144.801 393.333 139.334 398.4 138.934 398.133C138.667 397.733 140.134 394 142.134 389.733C148.934 375.867 149.201 375.2 148.134 373.467C147.334 372.267 142.934 373.867 130.667 380C121.734 384.4 114.801 387.467 115.334 386.667C115.867 385.867 120.667 381.867 126.001 377.867C136.934 369.867 138.267 368.4 136.267 366.4C135.334 365.467 132.801 365.467 128.401 366.4C116.801 369.067 101.467 371.467 102.001 370.667C102.267 370.133 107.467 366.933 113.601 363.333C119.734 359.867 127.067 355.333 130.001 353.333L135.201 349.6L138.801 353.467C140.801 355.6 145.734 358.8 149.601 360.667Z" fill="#90E0EF"/>
<path d="M291.201 84.6667C288.801 86.5334 288.934 86.6667 293.867 86.4001C296.801 86.1334 299.334 85.2001 299.734 84.2667C300.401 82.0001 294.401 82.2667 291.201 84.6667Z" fill="#90E0EF"/>
<path d="M302.8 89.3334C302.8 90.4 303.333 92.5334 303.867 94C304.667 95.8667 304.267 97.2 302.8 98.2667C300.933 99.6 300.933 99.8667 303.067 100.8C308.267 102.8 309.333 96.1334 304.8 90C303.333 88 302.8 87.8667 302.8 89.3334Z" fill="#90E0EF"/>
<path d="M294.666 92C294.666 93.4667 295.333 94.6667 295.999 94.6667C296.799 94.6667 297.333 93.4667 297.333 92C297.333 90.5334 296.799 89.3334 295.999 89.3334C295.333 89.3334 294.666 90.5334 294.666 92Z" fill="#90E0EF"/>
<path d="M308 91.2C308 92.4 308.667 93.3334 309.333 93.3334C310.133 93.3334 310.667 92.8 310.667 92.1334C310.667 91.3334 310.133 90.4 309.333 90C308.667 89.6 308 90.1334 308 91.2Z" fill="#90E0EF"/>
<path d="M269.334 94.6667C269.334 95.3333 270.267 96 271.467 96C272.534 96 273.067 95.3333 272.667 94.6667C272.267 93.8667 271.334 93.3333 270.534 93.3333C269.867 93.3333 269.334 93.8667 269.334 94.6667Z" fill="#90E0EF"/>
<path d="M297.334 104.667C297.334 105.733 298.534 106.667 300.001 106.667C303.201 106.667 303.601 104.667 300.534 103.467C297.601 102.267 297.334 102.4 297.334 104.667Z" fill="#90E0EF"/>
<path d="M201.334 167.2C201.334 168.4 202.001 169.333 202.667 169.333C203.467 169.333 204.001 168.8 204.001 168.133C204.001 167.333 203.467 166.4 202.667 166C202.001 165.6 201.334 166.133 201.334 167.2Z" fill="#90E0EF"/>
<path d="M190.666 182.8C190.666 184.267 191.199 185.2 191.999 184.667C192.666 184.267 192.933 183.067 192.399 182C191.466 179.2 190.666 179.467 190.666 182.8Z" fill="#90E0EF"/>
<path d="M273.601 136.933C274.134 138.533 270.267 144 268.534 144C267.734 144 266.267 144.933 265.334 146C264.001 147.6 264.001 148 265.334 148C266.267 148 266.667 148.8 266.267 149.733C265.867 150.8 266.401 151.6 267.467 151.6C268.534 151.6 269.334 150.933 269.334 150.267C269.334 149.467 271.467 146.933 274.134 144.4C276.667 141.867 278.534 139.067 278.267 138.267C277.734 136.533 273.067 135.2 273.601 136.933Z" fill="#90E0EF"/>
<path d="M279.067 178.667C278.667 180.133 277.867 181.333 277.2 181.333C276.534 181.333 276.4 182.267 276.8 183.333C277.334 184.4 277.067 186.133 276.267 187.067C272.934 191.067 273.734 200.267 277.2 198.133C278 197.6 278.4 196.533 278 195.867C277.467 195.2 277.867 194.667 278.534 194.667C279.334 194.667 280 193.733 280 192.667C280 191.6 280.667 190.667 281.467 190.667C282.134 190.667 282.534 190.133 282 189.333C281.6 188.667 282 186.933 282.8 185.6C284.534 182.8 283.467 176 281.2 176C280.4 176 279.467 177.2 279.067 178.667Z" fill="#90E0EF"/>
<path d="M360.666 190.8C359.466 192.667 360.399 193.467 362.533 192.133C363.599 191.333 363.733 190.667 362.933 190.133C362.133 189.733 361.066 190 360.666 190.8Z" fill="#90E0EF"/>
<path d="M410.134 163.733C408.134 166.133 408.134 166.267 411.334 167.733C413.334 168.667 414.934 168.8 415.334 168C415.867 167.2 415.334 166.667 414.267 166.667C412.934 166.667 412.534 165.733 412.934 164C413.867 160.667 413.067 160.667 410.134 163.733Z" fill="#90E0EF"/>
<path d="M328 163.2C328 165.6 330.933 166.667 334.533 165.733C338.133 164.8 338.133 163.2 334.4 162.133C329.6 160.933 328 161.2 328 163.2Z" fill="#2C3E50"/>
<path d="M325.468 164.8C325.468 166.267 325.868 166.667 326.268 165.6C326.668 164.667 326.534 163.467 326.134 163.067C325.734 162.533 325.334 163.333 325.468 164.8Z" fill="#2C3E50"/>
<path d="M326.4 204.667C330.133 207.733 330.667 207.867 334.667 206.133C339.867 204 338.4 202.8 329.333 202L322.533 201.333L326.4 204.667Z" fill="#90E0EF"/>
<path d="M212.401 81.6001C205.868 86.4001 205.201 88.6667 210.001 89.8667C212.668 90.5334 213.334 91.6001 213.334 94.6667C213.334 98.4001 213.468 98.5334 218.401 97.7334C226.934 96.5334 229.068 90.5334 223.734 82.6667C222.001 80.1334 220.134 78.0001 219.334 77.8667C218.668 77.6001 215.468 79.3334 212.401 81.6001ZM221.334 84.5334C223.734 87.6001 222.401 92.6667 219.068 93.0667C216.801 93.4667 216.001 92.8001 216.001 90.8001C216.001 89.3334 215.334 87.7334 214.668 87.3334C213.601 86.6667 213.734 85.8667 214.801 84.5334C216.801 82.1334 219.201 82.1334 221.334 84.5334Z" fill="#2C3E50"/>
<path d="M95.3341 95.2C85.4675 99.7333 84.8008 101.067 88.0008 108.533C93.7341 122 103.334 132 110.401 132C113.067 132 120.534 124.4 123.867 118.4C125.334 115.467 124.667 114.533 114.134 103.6C107.867 97.2 102.534 92 102.401 92C102.134 92 99.0675 93.4667 95.3341 95.2ZM104.001 97.2C104.001 99.0667 112.801 109.2 117.867 113.2L122.267 116.667L116.534 123.2L110.801 129.733L106.134 126.133C100.667 122 96.0008 116.533 91.2008 108.267L87.8675 102.533L94.9341 99.3333C102.934 95.7333 104.001 95.4667 104.001 97.2Z" fill="#2C3E50"/>
<path d="M60 112C60 117.733 71.2 131.6 74.8 130.4C76 130 75.3333 128.8 72.9333 126.667C70.9333 124.933 67.4667 120.533 65.2 117.067C60.9333 110.533 60 109.6 60 112Z" fill="#2C3E50"/>
<path d="M197.333 121.467C189.6 126.133 172.533 144.667 168.666 152.533C163.333 163.333 165.866 164.133 173.466 154C177.2 149.2 185.6 139.867 192.266 133.2C204.4 121.067 206.666 115.867 197.333 121.467Z" fill="#2C3E50"/>
<path d="M176.534 125.067C168.934 131.067 166.268 134.133 166.934 135.867C167.068 136.533 171.201 133.6 176.001 129.333C185.868 120.4 186.268 117.333 176.534 125.067Z" fill="#2C3E50"/>
<path d="M28.1336 165.067C20.4003 176 21.2003 200 29.6003 208.933C34.4003 214 36.8003 212.533 32.2669 207.333C25.6003 199.867 23.8669 189.733 26.8003 176.267C29.0669 165.2 29.7336 164.8 40.9336 167.467C50.1336 169.733 50.4003 169.867 48.5336 172.533C45.7336 176.533 46.1336 189.067 49.3336 195.333C50.8003 198.133 51.8669 200.533 51.6003 200.8C51.4669 200.933 49.2003 202 46.6669 203.333C41.3336 206 37.3336 209.2 37.3336 210.933C37.3336 211.6 39.0669 211.2 41.3336 210C44.9336 208.133 45.3336 208.133 46.5336 210.533C48.4003 213.867 56.0003 217.333 61.7336 217.333C65.2003 217.333 67.4669 216.267 70.2669 213.467C74.1336 209.733 82.6669 194.933 82.6669 192.133C82.6669 191.467 80.1336 190.133 77.0669 189.2C73.8669 188.4 69.4669 185.733 66.9336 183.2L62.2669 178.533L56.4003 182.667L50.6669 186.8V182.533C50.6669 180.267 52.0003 176 53.6003 173.067C57.2003 166.8 56.6669 166.4 44.8003 164C40.4003 163.2 35.3336 162.267 33.7336 161.867C31.7336 161.467 30.0003 162.4 28.1336 165.067ZM66.6669 189.333C69.6003 192.267 73.2003 194.667 74.6669 194.667C78.4003 194.667 78.0003 196 72.4003 202.8C66.2669 210 62.5336 213.2 60.4003 213.333C58.0003 213.333 48.0003 209.2 48.0003 208.133C48.0003 207.733 50.8003 205.6 54.2669 203.6L60.2669 199.867L55.2003 195.467C52.2669 192.933 50.2669 190.667 50.6669 190.4C51.6003 189.6 60.6669 184 61.0669 184C61.2003 184 63.7336 186.4 66.6669 189.333Z" fill="#2C3E50"/>
<path d="M476 212.533C464 216.933 457.6 219.733 456.8 221.2C456.4 221.867 456.933 225.333 458 228.8C460.933 238.4 460.667 241.067 457.067 240.533C443.067 238.667 443.067 238.667 441.467 243.867C440.667 246.533 438.667 250.933 437.067 253.6C433.733 259.067 417.733 276 416 276C415.333 276 412 272.667 408.533 268.667C405.067 264.667 401.333 261.333 400.4 261.333C399.333 261.333 397.067 262.8 395.333 264.667C392.667 267.2 392 269.2 392 274.4C392 280.267 392.667 281.867 398.267 288.667C407.867 300.267 420 309.733 430 313.2L438.667 316.267L446.4 312.533C458.8 306.4 467.733 296 476.133 278.133L483.333 262.8L489.333 261.867C497.467 260.8 505.067 258.8 505.733 257.6C506 257.067 505.867 251.467 505.333 245.2C504 230.4 499.867 220.933 491.733 214.267C488.4 211.6 485.467 209.333 485.2 209.333C484.933 209.333 480.8 210.8 476 212.533ZM491.333 220.133C498 227.467 500.933 234.667 502 246.133L502.933 255.6L496.8 256.4C493.467 256.933 489.333 257.6 487.6 258C484.8 258.8 484.667 258.4 485.067 252.933C485.733 245.2 483.2 242.667 474.933 242.667C465.2 242.667 462.667 241.6 462.533 237.467C462.533 235.6 461.733 231.6 460.8 228.667L459.2 223.333L471.2 219.067C477.867 216.8 484 214.8 484.8 214.8C485.733 214.667 488.533 217.2 491.333 220.133ZM461.333 246.267C467.467 247.333 474.533 247.867 476.933 247.333C485.2 245.867 484 252.267 471.6 277.6C465.467 290.267 463.6 292.933 456 299.333C447.2 306.8 439.333 310.4 435.2 308.8C433.333 308.133 433.067 306.8 433.733 301.067L434.667 294.133L426.533 286.533L418.4 279.067L423.067 276.133C431.733 270.8 441.333 258 444 248.133C445.2 243.6 446 242.667 447.733 243.333C448.933 243.867 455.067 245.067 461.333 246.267ZM407.2 272.667C410.667 276.667 417.6 283.467 422.533 287.733C430.667 294.8 431.467 295.867 430.4 298.8C429.733 300.533 429.467 303.6 429.867 305.467C430.533 308.933 430.4 309.067 426.667 307.6C417.067 304 394.667 280.533 394.667 274.133C394.667 271.2 398 265.333 399.867 265.333C400.4 265.333 403.733 268.667 407.2 272.667Z" fill="#2C3E50"/>
<path d="M64.6671 261.333C62.5338 261.867 57.7338 263.467 54.0005 264.8L47.4671 267.333L47.7338 274C48.5338 288.667 55.0671 303.467 62.2671 307.067C71.0671 311.467 72.8005 311.2 77.3338 304.533C79.7338 301.2 81.8671 298.8 82.2671 299.2C83.3338 300.133 77.0671 309.2 72.1338 313.867C68.9338 316.933 67.6005 317.333 63.4671 316.667C56.8005 315.333 50.9338 311.2 45.0671 303.333C38.5338 294.667 37.7338 291.2 41.4671 287.2C45.0671 283.333 43.2005 283.067 38.8005 286.667C34.5338 290.267 35.7338 296 42.8005 306.533C49.4671 316.533 56.9338 321.333 65.6005 321.333C70.9338 321.333 72.2671 320.667 75.7338 316.667C81.7338 310 87.0671 300.267 86.1338 297.867C85.7338 296.8 84.8005 296.267 84.0005 296.667C82.0005 297.867 82.4005 296.533 85.4671 290.4L88.2671 284.933L85.6005 282.8C84.1338 281.6 80.1338 276.4 76.8005 271.067C73.3338 265.733 70.1338 261.2 69.6005 260.933C69.0671 260.667 66.9338 260.8 64.6671 261.333ZM74.0005 273.2C76.6671 278.267 80.0005 283.467 81.3338 284.667C83.6005 286.667 83.4671 287.2 77.8671 295.467C74.6671 300.267 72.0005 304.8 72.0005 305.467C72.0005 307.467 67.8671 306.8 63.3338 304C56.9338 300.133 51.7338 289.333 50.9338 278.8L50.4005 270L58.1338 267.2C62.5338 265.6 66.6671 264.267 67.6005 264.133C68.5338 264.133 71.3338 268.133 74.0005 273.2Z" fill="#2C3E50"/>
<path d="M321.868 284.533C322.268 286.267 323.201 292 324.001 297.467C325.734 309.467 326.401 312 328.268 312C330.668 312 328.934 288.933 326.268 284.8C323.334 280.4 320.801 280.267 321.868 284.533Z" fill="#2C3E50"/>
<path d="M336.134 293.6C336.134 294.533 336.668 296.533 337.334 298C338.401 300.4 338.534 300.267 338.534 297.067C338.668 295.067 338.134 293.067 337.334 292.667C336.668 292.267 336.001 292.667 336.134 293.6Z" fill="#2C3E50"/>
<path d="M482.267 297.333C480.934 303.6 472.934 311.333 463.334 315.467C454.267 319.467 452.001 322.667 458.401 322.667C463.201 322.667 474.534 317.2 478.267 313.2C481.601 309.467 485.334 301.333 485.334 297.467C485.334 293.2 483.067 293.067 482.267 297.333Z" fill="#2C3E50"/>
<path d="M480.933 323.467C475.866 326.933 475.2 329.6 479.866 328.4C484.4 327.2 490.533 320 486.933 320C486.4 320 483.733 321.467 480.933 323.467Z" fill="#2C3E50"/>
<path d="M34.666 328.933C34.666 331.467 41.066 338.267 45.1993 339.867C49.866 341.867 58.9327 341.333 59.7327 338.933C59.9994 337.867 58.666 337.333 55.466 337.333C49.5993 337.333 41.866 334.267 37.7327 330.4C35.9993 328.8 34.666 328.133 34.666 328.933Z" fill="#2C3E50"/>
</svg>
